# xmcd
#
# Track frame offsets:
#	151
#	20674
#	36735
#	56968
#	78239
#	91125
#	101918
#	117899
#	131121
#	145881
#	161650
#	183417
#	205057
#	226968
#	247683
#	266973
#
# Disc length: 3884 seconds
#
# Revision: 1
# Processed by: cddbd v1.5.2PL0 Copyright (c) Steve Scherf et al.
# Submitted via: EZCDAudioConverter 7.1.5.1
#
DISCID=e60f2a10
DTITLE=毛宁 - 涛声依旧
DYEAR=2000
DGENRE=
TTITLE0=涛声依旧
TTITLE1=晚秋
TTITLE2=蓝蓝的夜，蓝蓝的梦
TTITLE3=心中的安妮
TTITLE4=春风吻上我的脸
TTITLE5=少年的我
TTITLE6=再见，我的爱人
TTITLE7=南海姑娘
TTITLE8=黄昏放牛
TTITLE9=星夜的离别
TTITLE10=能有几次这样的爱
TTITLE11=黑发变白发
TTITLE12=好想开开心心过一天
TTITLE13=心雨
TTITLE14=是否还想起我
TTITLE15=你我都没错
EXTD=
EXTT0=
EXTT1=
EXTT2=
EXTT3=
EXTT4=
EXTT5=
EXTT6=
EXTT7=
EXTT8=
EXTT9=
EXTT10=
EXTT11=
EXTT12=
EXTT13=
EXTT14=
EXTT15=
PLAYORDER=
